<svg width="21" height="20" viewBox="0 0 21 20" fill="none" xmlns="http://www.w3.org/2000/svg">
<path d="M13.075 17.2253C13.2333 17.2253 13.3916 17.1669 13.5166 17.0419C13.7583 16.8003 13.7583 16.4003 13.5166 16.1586L8.08329 10.7253C7.68329 10.3253 7.68329 9.67526 8.08329 9.27526L13.5166 3.84193C13.7583 3.60026 13.7583 3.20026 13.5166 2.95859C13.275 2.71693 12.875 2.71693 12.6333 2.95859L7.19996 8.39193C6.77496 8.81693 6.53329 9.39193 6.53329 10.0003C6.53329 10.6086 6.76663 11.1836 7.19996 11.6086L12.6333 17.0419C12.7583 17.1586 12.9166 17.2253 13.075 17.2253Z" fill="#0C0D0D"/>
</svg>
