<svg width="30" height="30" viewBox="0 0 30 30" fill="none" xmlns="http://www.w3.org/2000/svg">
<circle cx="15" cy="15" r="15" fill="#1B5E37"/>
<path d="M21.6667 12.6802V9.6535C21.6667 8.7135 21.24 8.3335 20.18 8.3335H17.4867C16.4267 8.3335 16 8.7135 16 9.6535V12.6735C16 13.6202 16.4267 13.9935 17.4867 13.9935H20.18C21.24 14.0002 21.6667 13.6202 21.6667 12.6802Z" fill="white"/>
<path d="M21.6667 20.18V17.4867C21.6667 16.4267 21.24 16 20.18 16H17.4867C16.4267 16 16 16.4267 16 17.4867V20.18C16 21.24 16.4267 21.6667 17.4867 21.6667H20.18C21.24 21.6667 21.6667 21.24 21.6667 20.18Z" fill="white"/>
<path d="M13.9999 12.6802V9.6535C13.9999 8.7135 13.5733 8.3335 12.5133 8.3335H9.81992C8.75992 8.3335 8.33325 8.7135 8.33325 9.6535V12.6735C8.33325 13.6202 8.75992 13.9935 9.81992 13.9935H12.5133C13.5733 14.0002 13.9999 13.6202 13.9999 12.6802Z" fill="white"/>
<path d="M13.9999 20.18V17.4867C13.9999 16.4267 13.5733 16 12.5133 16H9.81992C8.75992 16 8.33325 16.4267 8.33325 17.4867V20.18C8.33325 21.24 8.75992 21.6667 9.81992 21.6667H12.5133C13.5733 21.6667 13.9999 21.24 13.9999 20.18Z" fill="white"/>
</svg>
